<?xml version="1.0" encoding="UTF-8" standalone="no"?>
<!DOCTYPE svg PUBLIC "-//W3C//DTD SVG 1.1//EN" "http://www.w3.org/Graphics/SVG/1.1/DTD/svg11.dtd">
<svg width="100%" height="100%" viewBox="0 0 1600 840" version="1.1" xmlns="http://www.w3.org/2000/svg" xmlns:xlink="http://www.w3.org/1999/xlink" xml:space="preserve" xmlns:serif="http://www.serif.com/" style="fill-rule:evenodd;clip-rule:evenodd;stroke-linejoin:round;stroke-miterlimit:2;">
    <path d="M1600,100.8L1600,739.2C1600,794.833 1554.83,840 1499.2,840L100.8,840C45.167,840 0,794.833 0,739.2L0,100.8C0,45.167 45.167,0 100.8,0L1499.2,0C1554.83,0 1600,45.167 1600,100.8Z" style="fill:rgb(5,9,16);"/>
    <g transform="matrix(0.483065,0,0,0.483065,131.508,172.671)">
        <path d="M1024,276.48C1024,123.887 900.113,0 747.52,0L276.48,0C123.887,0 0,123.887 0,276.48L0,747.52C0,900.113 123.887,1024 276.48,1024L747.52,1024C900.113,1024 1024,900.113 1024,747.52L1024,276.48Z" style="fill:url(#_Linear1);"/>
        <clipPath id="_clip2">
            <path d="M1024,276.48C1024,123.887 900.113,0 747.52,0L276.48,0C123.887,0 0,123.887 0,276.48L0,747.52C0,900.113 123.887,1024 276.48,1024L747.52,1024C900.113,1024 1024,900.113 1024,747.52L1024,276.48Z"/>
        </clipPath>
        <g clip-path="url(#_clip2)">
            <g transform="matrix(1.33211,0.599261,-0.599261,1.33211,90.3841,-476.865)">
                <rect x="0" y="0" width="1024" height="1024" style="fill:url(#_Linear3);"/>
            </g>
            <g id="emoji_u1f9ab.svg" transform="matrix(4.87565,0,0,4.87565,512,512)">
                <g transform="matrix(1,0,0,1,-64,-64)">
                    <g>
                        <path d="M77.52,83.78C82.45,86.29 91.6,88.64 96.46,87.93C109.06,86.08 118.15,78.8 123.66,68.71C125.99,64.44 126.19,55.79 122.45,54.85C117.71,53.66 112.08,54.59 103.34,58.72C94.45,62.92 92.31,69.56 81.84,64.45" style="fill:rgb(105,77,66);fill-rule:nonzero;"/>
                        <path d="M79.88,75.09C81.71,76.31 81.97,76.97 83.48,78.57C86.45,81.73 93.47,81.9 94.83,81.92C102.92,82.03 106.83,80.07 112.05,76.62C117.27,73.17 122.18,65.63 123.06,61.89C123.67,59.31 123.98,57.35 123.86,55.76C123.47,55.32 123.01,54.99 122.46,54.85C117.72,53.66 112.09,54.59 103.35,58.72C94.46,62.92 92.32,69.56 81.85,64.45L79.57,74.62L79.88,75.09Z" style="fill:rgb(179,147,124);fill-opacity:0.44;fill-rule:nonzero;"/>
                        <path d="M123.47,59.99C123.65,59.04 123.78,58.19 123.84,57.42L118.47,55.07L118.78,54.37C116.93,54.34 114.89,54.61 112.59,55.2L115.17,56.34L112.51,62.37L106.48,59.71L107.77,56.8C106.7,57.22 102.65,58.94 100.94,60L103.19,60.99L100.53,67.02L94.53,64.3C93.4,65.01 92.28,65.59 91.07,65.94L85.02,79.62C85.75,79.99 86.55,80.28 87.36,80.51L89.82,74.95L95.85,77.61C95.85,77.61 94.6,80.4 93.94,81.89C94.33,81.91 96.05,81.92 96.63,81.9L98.14,78.62L103.47,80.93C105.07,80.47 106.52,79.85 107.96,79.1L110.14,73.98L113.56,75.51C114.25,74.95 114.93,74.33 115.58,73.67L111.15,71.7L113.81,65.67L119.89,68.36C120.38,67.63 120.82,66.91 121.21,66.21L114.82,63.38L117.48,57.35L123.47,59.99ZM96.84,75.33L90.81,72.67L93.47,66.64L99.5,69.3L96.84,75.33ZM105.16,79.01L99.13,76.35L101.79,70.32L107.82,72.98L105.16,79.01ZM108.83,70.69L102.8,68.03L105.46,62L111.49,64.66L108.83,70.69Z" style="fill:rgb(105,77,66);fill-rule:nonzero;"/>
                        <path d="M17.36,8.23C16.33,8.07 15.3,7.95 14.26,7.89C13.83,7.86 13.36,7.85 12.99,8.07C12.68,8.25 12.48,8.57 12.32,8.89C11.42,10.63 11.31,12.76 12.03,14.58C12.21,15.03 12.56,15.53 13.03,15.45C13.22,15.42 13.37,15.3 13.52,15.18C15,14.02 16.37,12.73 17.6,11.32C17.81,11.08 18.01,10.69 17.76,10.48" style="fill:rgb(130,91,78);fill-rule:nonzero;"/>
                        <path d="M57.41,102.05C48.76,106.24 43.03,111.13 37.03,117.13C36.58,117.58 34.7,119.63 35.86,120.25C37.02,120.87 39.89,118.77 40.71,119.32C41.69,119.97 40.97,121.12 42,121.86C43.03,122.6 45.8,120.44 47.2,121.07C48.6,121.7 47.98,122.78 48.8,123.74C49.87,125 52.25,123.83 52.89,123.32C56.66,120.34 66.05,111.39 67.71,109.46C69.91,106.9 71.31,103.46 69.35,101.18" style="fill:rgb(105,77,66);fill-rule:nonzero;"/>
                        <path d="M28.26,99.21C23.13,100.84 18.18,103.01 13.53,105.67C12.56,106.22 11.6,106.81 10.8,107.58C10.45,107.91 10.07,108.5 10.42,108.83C11.22,109.56 12.75,108.37 13.91,109.28C14.31,109.6 14.08,110.98 14.38,111.4C14.7,111.84 15.31,112 15.86,111.96C16.41,111.92 16.93,111.71 17.46,111.55C18.63,111.2 19.83,110.98 20.6,111.9C21.08,112.48 21.05,113.02 21.36,113.64C21.57,114.07 21.92,114.41 22.79,114.4C24.11,114.39 25.32,113.79 26.41,113.06C31.33,109.76 35.96,106.08 40.59,102.41" style="fill:rgb(105,77,66);fill-rule:nonzero;"/>
                        <path d="M47.3,12.38C50.76,13.35 51.62,12.36 54.22,12.56C57.55,12.81 57.15,15.96 56.66,17.7C56.03,19.93 54.79,21.74 53.02,23.23C52.72,23.48 52.38,23.74 51.98,23.77C51.51,23.81 51.08,23.52 50.72,23.22C48.36,21.29 46.86,18.34 46.69,15.3" style="fill:rgb(130,91,78);fill-rule:nonzero;"/>
                        <path d="M12.16,41.12C12.16,41.12 6.03,41.83 3.88,48.41C0.73,58.03 9.1,63.61 9.1,63.61C9.1,63.61 6.8,83.32 18.81,94.12C30.82,104.92 34.74,105.32 48.78,107.89C62.82,110.46 75.91,101.41 79.29,97.77C82.67,94.13 87.93,86.54 88.87,77.1C89.81,67.67 81.45,51.16 73.89,42.54C66.33,33.92 50.8,20.56 50.8,20.56L28.4,41.44L12.16,41.12Z" style="fill:rgb(179,138,109);fill-rule:nonzero;"/>
                        <path d="M48.27,13.23C42.68,5.39 36.47,3.84 29.64,3.84C22.27,3.84 15.28,9.25 12.06,13.53C9.46,17 6.22,22.64 5.76,29.13C5.4,34.23 7.02,39 12.06,42.53C17.1,46.06 37.13,50.27 45.35,44.62C52.55,39.67 54.99,33.02 54.27,27.44C53.76,23.43 52.6,19.3 48.27,13.23Z" style="fill:rgb(179,138,109);fill-rule:nonzero;"/>
                        <g transform="matrix(0.9523,-0.3051,0.3051,0.9523,-3.6671,11.9302)">
                            <ellipse cx="36.34" cy="17.7" rx="2.43" ry="3.15" style="fill:rgb(33,33,33);"/>
                        </g>
                        <path d="M15.62,32.75C15.1,36.39 16.71,41.87 18.06,41.79C19.18,41.72 19.44,39.5 19.44,39.5C19.44,39.5 20.4,42.34 22.16,42.16C23.84,41.98 23.76,35.97 24.19,33.03L18.49,30.7L15.62,32.75Z" style="fill:rgb(255,236,179);fill-rule:nonzero;"/>
                        <path d="M11.84,15.91C12.17,14.89 13.1,13.56 14.61,13.6C16.22,13.65 15.94,15.96 15.39,17.18C14.83,18.4 13.54,19.58 12.33,18.82C11.5,18.3 11.61,16.63 11.84,15.91Z" style="fill:rgb(33,33,33);fill-rule:nonzero;"/>
                        <path d="M41.53,67.39C28.73,63.07 28.19,50.32 24.25,47.32C22.91,46.29 21.62,46.04 20.26,45.33C19.01,44.68 17.57,44.02 16.26,44.54C17.16,45.15 17.97,45.91 18.62,46.79C17.32,46.92 15.39,47.08 14.75,47.9C14.64,48.04 14.79,48.26 14.95,48.34C15.11,48.42 17.25,48.81 18.1,49.67C17.42,50.25 16.64,50.73 16.05,51.4C15.71,51.78 16.02,52.02 16.16,52.06C17.08,52.31 18.11,52.16 18.97,52.58C19.83,53 20.46,53.79 21.22,54.35C22.14,55.04 23.29,55.42 24.45,55.42C26.37,59.43 28.87,62.77 32.12,65.79C35.12,68.58 38.82,70.57 42.93,71.32C55.86,73.68 61.6,60.52 61.6,60.52C61.6,60.52 52.41,71.06 41.53,67.39Z" style="fill:rgb(130,91,78);fill-rule:nonzero;"/>
                        <path d="M21.8,18.45C21.3,17.79 20.35,17.7 19.74,18.25C18.21,19.64 16.73,20.92 16.09,21.94C15.67,22.63 15.3,24.02 16.11,25.01C16.92,26 19.47,28.07 19.47,28.07C19.47,28.07 22.7,26.56 23.7,25.85C24.91,24.98 25.18,23.13 24.15,21.6C23.74,20.99 22.6,19.51 21.8,18.45Z" style="fill:rgb(33,33,33);fill-rule:nonzero;"/>
                        <path d="M28.47,32.39C29.31,31.08 28.37,30.46 27.82,31.1C27.2,31.81 25.56,32.94 23.31,32.15C22.06,31.71 21.22,31.31 20.74,29.88C20.4,28.86 20.52,27.49 20.53,26.43C20.53,25.95 18.39,25.9 18.25,26.3C17.96,27.12 17.98,27.97 17.95,28.83C17.92,29.78 17.79,30.91 16.98,31.41C14.34,33.08 12.78,30.58 12.47,30.29C12.34,30.17 12.04,30.94 12.3,31.77C13.54,35.78 17.97,35.05 19.24,33.13C19.47,34.73 25.12,37.62 28.47,32.39Z" style="fill:rgb(33,33,33);fill-rule:nonzero;"/>
                        <path d="M7.91,62.65C8.08,62.8 8.3,63.03 8.46,63.16C8.88,63.51 9.5,63.48 9.89,63.09C10.34,62.62 10.88,61.79 11.22,60.68C11.88,58.57 11.64,55.62 10.36,53.5L9.16,54.72C10.08,57.64 9.72,60.13 8.79,61.69C8.42,62.3 7.93,62.6 7.91,62.65Z" style="fill:rgb(130,91,78);fill-rule:nonzero;"/>
                        <path d="M39.09,42.94L38.36,46.31C41.49,45.93 44.81,39.87 44.81,39.87L44.85,43.92C48.85,41.75 50.92,32.43 50.92,32.43C51.28,36.95 51.68,47.01 38.16,48.76C33.26,49.4 28.13,47.38 28.13,47.38C28.13,47.38 35.75,46.88 39.09,42.94Z" style="fill:rgb(130,91,78);fill-rule:nonzero;"/>
                        <path d="M6.93,47.01C8.63,44.35 11.63,43.52 14.07,43.9C14.18,43.92 14.48,44.03 14.56,44.1C14.72,44.25 14.65,44.54 14.47,44.68C14.3,44.82 14.06,44.85 13.85,44.91C12.63,45.21 11.53,46.14 11.32,47.38C12.19,47.02 13.23,47.1 14.04,47.57C14.26,47.7 14.5,47.96 14.37,48.19C14.3,48.32 14.13,48.37 13.98,48.42C12.92,48.76 12.2,49.87 12.03,50.97C12.6,50.85 13.19,50.72 13.77,50.82C14.35,50.92 15.12,51.41 15.06,51.86C14.99,52.34 13.69,52.02 13.1,53.05C12.69,53.77 12.47,54.64 11.83,55.16C11.24,55.64 10.39,55.74 9.66,55.52C8.93,55.31 8.3,54.82 7.8,54.25C6.09,52.3 5.72,49.29 6.93,47.01" style="fill:rgb(130,91,78);fill-rule:nonzero;"/>
                    </g>
                </g>
            </g>
        </g>
    </g>
    <g transform="matrix(1.14365,0,0,1.14365,-232.932,78.7001)">
        <g transform="matrix(0.820638,0,0,0.820638,269.04,21.9684)">
            <g transform="matrix(121.856,0,0,121.856,1128.87,319.07)">
            </g>
            <g transform="matrix(121.856,0,0,121.856,1168.68,319.07)">
            </g>
            <g transform="matrix(121.856,0,0,121.856,1399.51,319.07)">
            </g>
            <text x="767.442px" y="319.07px" style="font-family:'Poppins-Regular', 'Poppins';font-size:121.856px;fill:white;">expo-ﬁtbit</text>
        </g>
        <g transform="matrix(1,0,0,1,8.52906,43.1354)">
            <text x="989.922px" y="135.364px" style="font-family:'SegoeUI', 'Segoe UI', sans-serif;font-size:54.132px;fill:rgb(120,204,167);">@</text>
            <text x="1041.62px" y="135.364px" style="font-family:'Poppins-Regular', 'Poppins';font-size:54.132px;fill:rgb(120,204,167);">beaverfy</text>
            <g transform="matrix(54.132,0,0,54.132,1301.87,135.364)">
            </g>
            <text x="1280.78px" y="135.364px" style="font-family:'SegoeUI', 'Segoe UI', sans-serif;font-size:54.132px;fill:rgb(120,204,167);">/</text>
        </g>
        <g transform="matrix(0.874391,0,0,0.874391,115.908,-2.57377)">
            <g transform="matrix(54.1667,0,0,54.1667,953.454,432.952)">
            </g>
            <g transform="matrix(54.1667,0,0,54.1667,971.151,432.952)">
            </g>
            <text x="829.25px" y="432.952px" style="font-family:'Poppins-Regular', 'Poppins';font-size:54.167px;fill:white;">Add ﬁtbit authentication to</text>
            <g transform="matrix(54.1667,0,0,54.1667,1374.9,492.535)">
            </g>
            <text x="1010.25px" y="492.535px" style="font-family:'Poppins-Regular', 'Poppins';font-size:54.167px;fill:white;">expo projects</text>
        </g>
    </g>
    <defs>
        <linearGradient id="_Linear1" x1="0" y1="0" x2="1" y2="0" gradientUnits="userSpaceOnUse" gradientTransform="matrix(1024,0,0,1024,0,512)"><stop offset="0" style="stop-color:rgb(163,218,194);stop-opacity:1"/><stop offset="1" style="stop-color:rgb(80,194,145);stop-opacity:1"/></linearGradient>
        <linearGradient id="_Linear3" x1="0" y1="0" x2="1" y2="0" gradientUnits="userSpaceOnUse" gradientTransform="matrix(1024,0,0,1024,0,512)"><stop offset="0" style="stop-color:rgb(163,218,194);stop-opacity:1"/><stop offset="1" style="stop-color:rgb(80,194,145);stop-opacity:1"/></linearGradient>
    </defs>
</svg>
